<mxfile host="Electron" modified="2023-09-14T07:20:37.890Z" agent="Mozilla/5.0 (Windows NT 10.0; Win64; x64) AppleWebKit/537.36 (KHTML, like Gecko) draw.io/21.5.1 Chrome/112.0.5615.204 Electron/24.6.0 Safari/537.36" etag="_8iwmrm3KZknZUqNNAUt" version="21.5.1" type="device">
  <diagram name="第 1 页" id="042zHYNonQd5HWO-lwxl">
    <mxGraphModel dx="941" dy="692" grid="1" gridSize="10" guides="1" tooltips="1" connect="1" arrows="1" fold="1" page="1" pageScale="1" pageWidth="827" pageHeight="1169" math="0" shadow="0">
      <root>
        <mxCell id="0" />
        <mxCell id="1" parent="0" />
        <mxCell id="6-xSIpqpkcfB3MpjnkZ1-3" style="edgeStyle=orthogonalEdgeStyle;rounded=0;orthogonalLoop=1;jettySize=auto;html=1;exitX=0.5;exitY=1;exitDx=0;exitDy=0;endArrow=none;endFill=0;" edge="1" parent="1" source="_YRsAoWVU7ChOqbyJG8v-7" target="6-xSIpqpkcfB3MpjnkZ1-1">
          <mxGeometry relative="1" as="geometry" />
        </mxCell>
        <mxCell id="6-xSIpqpkcfB3MpjnkZ1-4" style="edgeStyle=orthogonalEdgeStyle;rounded=0;orthogonalLoop=1;jettySize=auto;html=1;exitX=0.5;exitY=1;exitDx=0;exitDy=0;endArrow=none;endFill=0;" edge="1" parent="1" source="_YRsAoWVU7ChOqbyJG8v-7" target="6-xSIpqpkcfB3MpjnkZ1-2">
          <mxGeometry relative="1" as="geometry" />
        </mxCell>
        <mxCell id="6-xSIpqpkcfB3MpjnkZ1-6" style="edgeStyle=orthogonalEdgeStyle;rounded=0;orthogonalLoop=1;jettySize=auto;html=1;exitX=0.5;exitY=1;exitDx=0;exitDy=0;endArrow=none;endFill=0;" edge="1" parent="1" source="_YRsAoWVU7ChOqbyJG8v-7" target="6-xSIpqpkcfB3MpjnkZ1-5">
          <mxGeometry relative="1" as="geometry" />
        </mxCell>
        <mxCell id="_YRsAoWVU7ChOqbyJG8v-7" value="组织与人员信息管理" style="rounded=0;whiteSpace=wrap;html=1;" parent="1" vertex="1">
          <mxGeometry x="450" y="160" width="120" height="60" as="geometry" />
        </mxCell>
        <mxCell id="6-xSIpqpkcfB3MpjnkZ1-1" value="组织结构树管理" style="rounded=0;whiteSpace=wrap;html=1;" vertex="1" parent="1">
          <mxGeometry x="260" y="260" width="120" height="60" as="geometry" />
        </mxCell>
        <mxCell id="6-xSIpqpkcfB3MpjnkZ1-2" value="人员信息表管理" style="rounded=0;whiteSpace=wrap;html=1;" vertex="1" parent="1">
          <mxGeometry x="450" y="260" width="120" height="60" as="geometry" />
        </mxCell>
        <mxCell id="6-xSIpqpkcfB3MpjnkZ1-5" value="信息外部接口" style="rounded=0;whiteSpace=wrap;html=1;" vertex="1" parent="1">
          <mxGeometry x="640" y="260" width="120" height="60" as="geometry" />
        </mxCell>
      </root>
    </mxGraphModel>
  </diagram>
</mxfile>
